<svg width="35" height="17" viewBox="0 0 35 17" fill="none" xmlns="http://www.w3.org/2000/svg">
<path d="M17.24 16.5306C17.8093 16.5316 18.3611 16.3408 18.7995 15.9911L33.4195 4.26276C33.9171 3.86461 34.23 3.29248 34.2894 2.67222C34.3488 2.05197 34.1498 1.4344 33.7362 0.955377C33.3226 0.476353 32.7283 0.175114 32.084 0.117927C31.4397 0.0607408 30.7981 0.252291 30.3005 0.65044L17.24 11.159L4.17946 1.02575C3.93021 0.830903 3.64343 0.685398 3.33558 0.597596C3.02773 0.509793 2.7049 0.481425 2.38563 0.514122C2.06636 0.546819 1.75694 0.639934 1.47517 0.788118C1.19341 0.936303 0.944836 1.13663 0.743755 1.3776C0.520607 1.61878 0.351601 1.90173 0.24733 2.20871C0.143059 2.5157 0.10577 2.84011 0.137794 3.16161C0.169823 3.48312 0.27047 3.79479 0.433441 4.0771C0.596416 4.35942 0.818199 4.6063 1.08489 4.80226L15.7049 16.1318C16.1559 16.4262 16.6964 16.5666 17.24 16.5306Z" fill="#231F20"/>
</svg>
