<svg width="18" height="34" viewBox="0 0 18 34" fill="none" xmlns="http://www.w3.org/2000/svg">
<path d="M17.9867 17.1479C17.9878 16.5999 17.7895 16.0687 17.4262 15.6467L5.24289 1.57275C4.8293 1.09372 4.23497 0.792485 3.59065 0.735298C2.94633 0.678111 2.3048 0.869663 1.80719 1.26781C1.30958 1.66596 0.996657 2.2381 0.937252 2.85835C0.877846 3.4786 1.07683 4.09617 1.49042 4.5752L12.4067 17.1479L1.88029 29.7207C1.67789 29.9606 1.52674 30.2367 1.43553 30.5331C1.34432 30.8294 1.31485 31.1402 1.34882 31.4475C1.38278 31.7549 1.47951 32.0527 1.63344 32.324C1.78738 32.5952 1.99548 32.8345 2.24579 33.0281C2.49633 33.2429 2.79026 33.4056 3.10916 33.506C3.42805 33.6063 3.76504 33.6422 4.09902 33.6114C4.433 33.5806 4.75676 33.4837 5.05003 33.3268C5.3433 33.1699 5.59976 32.9564 5.80333 32.6997L17.5724 18.6257C17.8783 18.1916 18.0241 17.6713 17.9867 17.1479Z" fill="#231F20"/>
</svg>
