<svg width="18" height="34" viewBox="0 0 18 34" fill="none" xmlns="http://www.w3.org/2000/svg">
<path d="M0.49332 16.852C0.492208 17.4001 0.690493 17.9312 1.05375 18.3532L13.2371 32.4272C13.6507 32.9062 14.245 33.2075 14.8893 33.2647C15.5337 33.3219 16.1752 33.1303 16.6728 32.7322C17.1704 32.334 17.4833 31.7619 17.5427 31.1416C17.6021 30.5214 17.4032 29.9038 16.9896 29.4248L6.07329 16.852L16.5997 4.27927C16.8021 4.03934 16.9532 3.76327 17.0445 3.46692C17.1357 3.17057 17.1651 2.85979 17.1312 2.55244C17.0972 2.24509 17.0005 1.94724 16.8465 1.67599C16.6926 1.40475 16.4845 1.16546 16.2342 0.971893C15.9836 0.757076 15.6897 0.594383 15.3708 0.494007C15.0519 0.393631 14.7149 0.357735 14.381 0.388561C14.047 0.419392 13.7232 0.516281 13.4299 0.673168C13.1367 0.830051 12.8802 1.04355 12.6767 1.30029L0.907555 15.3743C0.601715 15.8084 0.455868 16.3287 0.49332 16.852Z" fill="#231F20"/>
</svg>
