<svg width="30" height="15" viewBox="0 0 30 15" fill="none" xmlns="http://www.w3.org/2000/svg">
<path d="M14.6318 14.7907C15.1186 14.7916 15.5903 14.6221 15.9652 14.3115L28.4652 3.89482C28.8906 3.5412 29.1582 3.03305 29.209 2.48216C29.2597 1.93127 29.0896 1.38277 28.736 0.95732C28.3824 0.531869 27.8742 0.264319 27.3233 0.213528C26.7725 0.162736 26.2239 0.332864 25.7985 0.686486L14.6318 10.0198L3.46516 1.01982C3.25207 0.846767 3.00686 0.717534 2.74366 0.639552C2.48045 0.561569 2.20443 0.536373 1.93145 0.565414C1.65848 0.594454 1.39393 0.677155 1.15302 0.808767C0.912111 0.94038 0.699587 1.11831 0.527664 1.33232C0.336874 1.54653 0.192375 1.79784 0.103224 2.07049C0.0140724 2.34314 -0.0178089 2.63127 0.00957298 2.91682C0.0369549 3.20237 0.123009 3.47918 0.262348 3.72993C0.40169 3.98067 0.591312 4.19994 0.819334 4.37399L13.3193 14.4365C13.7049 14.698 14.167 14.8227 14.6318 14.7907Z" fill="#231F20"/>
</svg>
