<svg width="312" height="30" viewBox="0 0 312 30" fill="none" xmlns="http://www.w3.org/2000/svg">
<path d="M24.2 28.3184H15.28C15.8933 28.1584 16.4267 27.8784 16.88 27.4784C17.3333 27.0517 17.6 26.5317 17.68 25.9184L16.92 21.5584C16.6533 19.6917 16.0933 18.1184 15.24 16.8384C14.4133 15.5584 13.1067 14.8784 11.32 14.7984H10.12C8.49333 14.7984 7.17333 15.0117 6.16 15.4384V25.9184C6.34667 26.5317 6.69333 27.0517 7.2 27.4784C7.73333 27.8784 8.30667 28.1584 8.92 28.3184H0.2C0.813333 28.1584 1.38667 27.8784 1.92 27.4784C2.45333 27.0517 2.8 26.5317 2.96 25.9184V2.91836C2.8 2.30502 2.45333 1.79836 1.92 1.39836C1.38667 0.971692 0.813333 0.678358 0.2 0.518357H10.52C13.72 0.518357 16.24 1.09169 18.08 2.23836C19.9467 3.35836 20.88 5.17169 20.88 7.67836C20.88 9.86503 20.28 11.4784 19.08 12.5184C17.9067 13.5317 16.24 14.2117 14.08 14.5584V14.6384C17.8667 15.2784 20.04 17.585 20.6 21.5584L21.32 25.8784C21.9067 27.105 22.8667 27.9184 24.2 28.3184ZM6.16 15.0384C7.22667 14.6384 8.49333 14.4384 9.96 14.4384H10.52C12.6533 14.4384 14.3067 13.865 15.48 12.7184C16.6533 11.545 17.24 9.86503 17.24 7.67836C17.24 5.46502 16.64 3.78502 15.44 2.63836C14.24 1.49169 12.6 0.918357 10.52 0.918357H6.16V15.0384ZM40.0956 28.7184C37.4556 28.7184 35.0823 28.185 32.9756 27.1184C30.8956 26.025 29.2423 24.425 28.0156 22.3184C26.8156 20.185 26.2156 17.5584 26.2156 14.4384C26.2156 11.3984 26.8156 8.81169 28.0156 6.67836C29.2423 4.54502 30.8956 2.91836 32.9756 1.79836C35.0823 0.678358 37.4556 0.118358 40.0956 0.118358C42.7623 0.118358 45.1356 0.678358 47.2156 1.79836C49.3223 2.91836 50.9756 4.54502 52.1756 6.67836C53.4023 8.81169 54.0156 11.3984 54.0156 14.4384C54.0156 17.5584 53.4023 20.185 52.1756 22.3184C50.9756 24.425 49.3223 26.025 47.2156 27.1184C45.1356 28.185 42.7623 28.7184 40.0956 28.7184ZM41.0156 28.1984C41.869 28.1984 42.7623 28.0784 43.6956 27.8384C46.2023 27.1184 48.029 25.8117 49.1756 23.9184C50.349 22.025 50.9356 19.825 50.9356 17.3184C50.9356 15.505 50.669 13.6384 50.1356 11.7184C49.2823 8.51836 47.9356 5.89169 46.0956 3.83836C44.2556 1.78503 41.989 0.718359 39.2956 0.638358C38.4156 0.638358 37.4956 0.758358 36.5356 0.998358C34.029 1.71836 32.189 3.02503 31.0156 4.91836C29.869 6.81169 29.2956 9.01169 29.2956 11.5184C29.2956 13.305 29.5623 15.1717 30.0956 17.1184C30.6556 19.225 31.4423 21.1184 32.4556 22.7984C33.469 24.4517 34.6956 25.7717 36.1356 26.7584C37.5756 27.7184 39.2023 28.1984 41.0156 28.1984ZM70.1709 28.7184C69.3443 28.7184 68.7043 28.5184 68.2509 28.1184C67.2109 27.3984 66.6909 26.425 66.6909 25.1984C66.6909 24.5317 66.8643 23.825 67.2109 23.0784C67.5843 22.3317 68.0643 21.5184 68.6509 20.6384C67.9043 19.3584 64.8776 13.905 59.5709 4.27836V25.4784C59.7576 26.0917 60.1043 26.6784 60.6109 27.2384C61.1443 27.7717 61.7309 28.1317 62.3709 28.3184H56.4109C57.0243 28.1317 57.5976 27.7717 58.1309 27.2384C58.6643 26.6784 59.0109 26.0917 59.1709 25.4784V3.51836C59.0109 2.90503 58.6643 2.30503 58.1309 1.71836C57.5976 1.10503 57.0243 0.705025 56.4109 0.518357H60.7709L70.3709 17.9984L81.7309 0.518357H86.7309C86.0909 0.678358 85.5043 0.971692 84.9709 1.39836C84.4643 1.79836 84.1176 2.30502 83.9309 2.91836V25.9184C84.1176 26.5317 84.4643 27.0517 84.9709 27.4784C85.5043 27.8784 86.0909 28.1584 86.7309 28.3184H77.9709C78.6109 28.1584 79.1843 27.8784 79.6909 27.4784C80.2243 27.0517 80.5843 26.5317 80.7709 25.9184V2.71836L70.5709 18.3984L71.4109 19.8784C72.0776 20.9717 72.6109 21.945 73.0109 22.7984C73.4376 23.6517 73.6509 24.4517 73.6509 25.1984C73.6509 26.1584 73.3176 26.985 72.6509 27.6784C71.9843 28.3717 71.1576 28.7184 70.1709 28.7184ZM69.1309 27.7184C69.6909 27.7184 70.1309 27.5184 70.4509 27.1184C70.7976 26.7184 70.9709 26.2517 70.9709 25.7184C70.9709 25.185 70.7576 24.5184 70.3309 23.7184C69.9309 22.9184 69.4376 22.025 68.8509 21.0384C68.3176 21.865 67.8909 22.625 67.5709 23.3184C67.2509 24.0117 67.0909 24.6384 67.0909 25.1984C67.0909 25.945 67.3043 26.5584 67.7309 27.0384C68.1576 27.4917 68.6243 27.7184 69.1309 27.7184ZM116.985 28.3184H108.185C108.692 28.185 109.119 27.9317 109.465 27.5584C109.812 27.1584 109.985 26.705 109.985 26.1984V25.9184L107.585 20.0384H95.3853L93.0253 25.9184V26.1984C93.0253 26.705 93.1986 27.1584 93.5453 27.5584C93.892 27.9317 94.3186 28.185 94.8253 28.3184H89.1453C89.8386 28.1584 90.532 27.825 91.2253 27.3184C91.9186 26.8117 92.4653 26.105 92.8653 25.1984L101.265 4.39836L100.945 3.55836C100.599 2.89169 100.145 2.26502 99.5853 1.67836C99.052 1.06503 98.492 0.678358 97.9053 0.518357H103.305L113.265 25.1984C113.665 26.105 114.212 26.8117 114.905 27.3184C115.599 27.825 116.292 28.1584 116.985 28.3184ZM107.425 19.6384L101.505 4.95836L95.5453 19.6384H107.425ZM128.66 28.3184H119.94C120.553 28.1584 121.126 27.8784 121.66 27.4784C122.193 27.0517 122.54 26.5317 122.7 25.9184V2.91836C122.54 2.30502 122.193 1.79836 121.66 1.39836C121.126 0.971692 120.553 0.678358 119.94 0.518357H128.66C128.046 0.678358 127.473 0.971692 126.94 1.39836C126.433 1.79836 126.086 2.30502 125.9 2.91836V25.9184C126.086 26.5317 126.433 27.0517 126.94 27.4784C127.473 27.8784 128.046 28.1584 128.66 28.3184ZM154.051 28.3184H152.531L134.571 3.19836V25.4784C134.758 26.0917 135.104 26.6784 135.611 27.2384C136.144 27.7717 136.731 28.1317 137.371 28.3184H131.411C132.024 28.1317 132.598 27.7717 133.131 27.2384C133.664 26.6784 134.011 26.0917 134.171 25.4784V2.59836C133.904 2.11836 133.558 1.69169 133.131 1.31836C132.731 0.918358 132.291 0.65169 131.811 0.518357H136.651L153.651 24.3184V3.39836C153.464 2.78502 153.104 2.19836 152.571 1.63836C152.064 1.07836 151.491 0.705025 150.851 0.518357H156.811C156.198 0.705025 155.624 1.07836 155.091 1.63836C154.584 2.19836 154.238 2.78502 154.051 3.39836V24.8784L154.131 24.9984L154.051 26.1584V28.3184ZM185.015 28.3184H184.495L175.055 3.23836C174.655 2.62502 174.095 2.06502 173.375 1.55836C172.655 1.05169 171.948 0.705025 171.255 0.518357H180.175C178.921 0.918358 178.295 1.71836 178.295 2.91836L186.215 23.9984L194.135 2.91836C194.135 1.71836 193.508 0.918358 192.255 0.518357H198.255C197.561 0.705025 196.855 1.05169 196.135 1.55836C195.415 2.06502 194.855 2.62502 194.455 3.23836L185.015 28.3184ZM209.949 28.3184H201.229C201.842 28.1584 202.415 27.8784 202.949 27.4784C203.482 27.0517 203.829 26.5317 203.989 25.9184V2.91836C203.829 2.30502 203.482 1.79836 202.949 1.39836C202.415 0.971692 201.842 0.678358 201.229 0.518357H209.949C209.335 0.678358 208.762 0.971692 208.229 1.39836C207.722 1.79836 207.375 2.30502 207.189 2.91836V25.9184C207.375 26.5317 207.722 27.0517 208.229 27.4784C208.762 27.8784 209.335 28.1584 209.949 28.3184ZM226.86 29.1984C222.593 29.1984 219.26 27.9717 216.86 25.5184C214.46 23.0384 213.26 19.505 213.26 14.9184C213.26 10.625 214.527 7.17169 217.06 4.55836C219.593 1.91836 222.953 0.598359 227.14 0.598359C230.42 0.598359 233.42 1.13169 236.14 2.19836V7.75836C235.393 6.53169 234.527 5.42503 233.54 4.43836C232.58 3.45169 231.5 2.66503 230.3 2.07836C229.1 1.46503 227.78 1.15836 226.34 1.15836C223.513 1.15836 221.18 2.19836 219.34 4.27836C217.5 6.35836 216.58 9.29169 216.58 13.0784C216.58 16.1184 216.967 18.825 217.74 21.1984C218.513 23.5717 219.66 25.4384 221.18 26.7984C222.7 28.1317 224.593 28.7984 226.86 28.7984C228.753 28.7984 230.26 28.385 231.38 27.5584C232.5 26.7317 233.3 25.6117 233.78 24.1984C234.287 22.785 234.54 21.2117 234.54 19.4784V16.2384C234.353 15.6517 233.993 15.1584 233.46 14.7584C232.953 14.3317 232.393 14.0384 231.78 13.8784H240.5C239.887 14.0384 239.313 14.3317 238.78 14.7584C238.247 15.1584 237.9 15.6517 237.74 16.2384V28.7984H237.34L234.54 23.1184C234.14 24.905 233.327 26.3717 232.1 27.5184C230.9 28.6384 229.153 29.1984 226.86 29.1984ZM265.574 28.3184H264.054L246.094 3.19836V25.4784C246.281 26.0917 246.628 26.6784 247.134 27.2384C247.668 27.7717 248.254 28.1317 248.894 28.3184H242.934C243.548 28.1317 244.121 27.7717 244.654 27.2384C245.188 26.6784 245.534 26.0917 245.694 25.4784V2.59836C245.428 2.11836 245.081 1.69169 244.654 1.31836C244.254 0.918358 243.814 0.65169 243.334 0.518357H248.174L265.174 24.3184V3.39836C264.988 2.78502 264.628 2.19836 264.094 1.63836C263.588 1.07836 263.014 0.705025 262.374 0.518357H268.334C267.721 0.705025 267.148 1.07836 266.614 1.63836C266.108 2.19836 265.761 2.78502 265.574 3.39836V24.8784L265.654 24.9984L265.574 26.1584V28.3184ZM290.347 28.3184H270.747C271.36 28.1584 271.934 27.8784 272.467 27.4784C273 27.0517 273.347 26.5317 273.507 25.9184V2.91836C273.347 2.30502 273 1.79836 272.467 1.39836C271.934 0.971692 271.36 0.678358 270.747 0.518357H290.187L290.987 5.27836C289.814 4.05169 288.4 3.02502 286.747 2.19836C285.12 1.34502 283.44 0.918357 281.707 0.918357H276.707V14.2384H283.107C283.8 14.0784 284.587 13.8517 285.467 13.5584C286.347 13.2384 287.134 12.8917 287.827 12.5184C288.52 12.145 288.934 11.785 289.067 11.4384V17.3984C288.934 17.0517 288.52 16.6917 287.827 16.3184C287.134 15.945 286.347 15.6117 285.467 15.3184C284.587 15.025 283.8 14.7984 283.107 14.6384H276.707V27.9184H281.547C283.254 27.9184 284.974 27.4517 286.707 26.5184C288.44 25.5584 289.92 24.465 291.147 23.2384L290.347 28.3184ZM302.719 29.1984C301.199 29.1984 299.639 29.0917 298.039 28.8784C296.466 28.665 295.173 28.425 294.159 28.1584V22.0384C295.146 23.905 296.399 25.505 297.919 26.8384C299.439 28.145 301.039 28.7984 302.719 28.7984V29.1984ZM302.719 29.1984V28.7984C304.613 28.7984 306.093 28.2917 307.159 27.2784C308.226 26.2384 308.759 24.865 308.759 23.1584C308.759 21.8517 308.439 20.745 307.799 19.8384C307.186 18.9317 306.386 18.145 305.399 17.4784C304.439 16.8117 303.413 16.185 302.319 15.5984C300.186 14.425 298.546 13.4384 297.399 12.6384C296.439 11.945 295.693 11.185 295.159 10.3584C294.653 9.50502 294.399 8.42502 294.399 7.11836C294.399 5.17169 295.119 3.59836 296.559 2.39836C297.999 1.19836 299.866 0.598359 302.159 0.598359C303.706 0.598359 305.266 0.705025 306.839 0.918357C308.413 1.13169 309.706 1.37169 310.719 1.63836V7.75836C309.733 5.89169 308.479 4.30502 306.959 2.99836C305.466 1.66503 303.866 0.998358 302.159 0.998358C300.586 0.998358 299.293 1.39836 298.279 2.19836C297.293 2.99836 296.799 4.06503 296.799 5.39836C296.799 6.38503 297.106 7.26503 297.719 8.03836C298.333 8.81169 299.093 9.51836 299.999 10.1584C300.906 10.7984 301.813 11.385 302.719 11.9184L304.879 13.1984C306.159 13.9184 307.306 14.6517 308.319 15.3984C309.333 16.1184 310.133 16.9717 310.719 17.9584C311.306 18.9184 311.599 20.145 311.599 21.6384C311.599 23.8517 310.826 25.665 309.279 27.0784C307.759 28.4917 305.573 29.1984 302.719 29.1984Z" fill="white"/>
</svg>
