<svg width="312" height="30" viewBox="0 0 312 30" fill="none" xmlns="http://www.w3.org/2000/svg">
<path d="M24.2 28.8307H15.28C15.8933 28.6707 16.4267 28.3907 16.88 27.9907C17.3333 27.564 17.6 27.044 17.68 26.4307L16.92 22.0707C16.6533 20.204 16.0933 18.6307 15.24 17.3507C14.4133 16.0707 13.1067 15.3907 11.32 15.3107H10.12C8.49333 15.3107 7.17333 15.524 6.16 15.9507V26.4307C6.34667 27.044 6.69333 27.564 7.2 27.9907C7.73333 28.3907 8.30667 28.6707 8.92 28.8307H0.2C0.813333 28.6707 1.38667 28.3907 1.92 27.9907C2.45333 27.564 2.8 27.044 2.96 26.4307V3.43069C2.8 2.81735 2.45333 2.31069 1.92 1.91069C1.38667 1.48402 0.813333 1.19069 0.2 1.03069H10.52C13.72 1.03069 16.24 1.60402 18.08 2.75069C19.9467 3.87069 20.88 5.68402 20.88 8.19069C20.88 10.3774 20.28 11.9907 19.08 13.0307C17.9067 14.044 16.24 14.724 14.08 15.0707V15.1507C17.8667 15.7907 20.04 18.0974 20.6 22.0707L21.32 26.3907C21.9067 27.6174 22.8667 28.4307 24.2 28.8307ZM6.16 15.5507C7.22667 15.1507 8.49333 14.9507 9.96 14.9507H10.52C12.6533 14.9507 14.3067 14.3774 15.48 13.2307C16.6533 12.0574 17.24 10.3774 17.24 8.19069C17.24 5.97735 16.64 4.29735 15.44 3.15069C14.24 2.00402 12.6 1.43069 10.52 1.43069H6.16V15.5507ZM40.0956 29.2307C37.4556 29.2307 35.0823 28.6974 32.9756 27.6307C30.8956 26.5374 29.2423 24.9374 28.0156 22.8307C26.8156 20.6974 26.2156 18.0707 26.2156 14.9507C26.2156 11.9107 26.8156 9.32402 28.0156 7.19069C29.2423 5.05735 30.8956 3.43069 32.9756 2.31069C35.0823 1.19069 37.4556 0.630687 40.0956 0.630687C42.7623 0.630687 45.1356 1.19069 47.2156 2.31069C49.3223 3.43069 50.9756 5.05735 52.1756 7.19069C53.4023 9.32402 54.0156 11.9107 54.0156 14.9507C54.0156 18.0707 53.4023 20.6974 52.1756 22.8307C50.9756 24.9374 49.3223 26.5374 47.2156 27.6307C45.1356 28.6974 42.7623 29.2307 40.0956 29.2307ZM41.0156 28.7107C41.869 28.7107 42.7623 28.5907 43.6956 28.3507C46.2023 27.6307 48.029 26.324 49.1756 24.4307C50.349 22.5374 50.9356 20.3374 50.9356 17.8307C50.9356 16.0174 50.669 14.1507 50.1356 12.2307C49.2823 9.03069 47.9356 6.40402 46.0956 4.35069C44.2556 2.29735 41.989 1.23069 39.2956 1.15069C38.4156 1.15069 37.4956 1.27069 36.5356 1.51069C34.029 2.23069 32.189 3.53735 31.0156 5.43069C29.869 7.32402 29.2956 9.52402 29.2956 12.0307C29.2956 13.8174 29.5623 15.684 30.0956 17.6307C30.6556 19.7374 31.4423 21.6307 32.4556 23.3107C33.469 24.964 34.6956 26.284 36.1356 27.2707C37.5756 28.2307 39.2023 28.7107 41.0156 28.7107ZM70.1709 29.2307C69.3443 29.2307 68.7043 29.0307 68.2509 28.6307C67.2109 27.9107 66.6909 26.9374 66.6909 25.7107C66.6909 25.044 66.8643 24.3374 67.2109 23.5907C67.5843 22.844 68.0643 22.0307 68.6509 21.1507C67.9043 19.8707 64.8776 14.4174 59.5709 4.79069V25.9907C59.7576 26.604 60.1043 27.1907 60.6109 27.7507C61.1443 28.284 61.7309 28.644 62.3709 28.8307H56.4109C57.0243 28.644 57.5976 28.284 58.1309 27.7507C58.6643 27.1907 59.0109 26.604 59.1709 25.9907V4.03069C59.0109 3.41735 58.6643 2.81735 58.1309 2.23069C57.5976 1.61735 57.0243 1.21735 56.4109 1.03069H60.7709L70.3709 18.5107L81.7309 1.03069H86.7309C86.0909 1.19069 85.5043 1.48402 84.9709 1.91069C84.4643 2.31069 84.1176 2.81735 83.9309 3.43069V26.4307C84.1176 27.044 84.4643 27.564 84.9709 27.9907C85.5043 28.3907 86.0909 28.6707 86.7309 28.8307H77.9709C78.6109 28.6707 79.1843 28.3907 79.6909 27.9907C80.2243 27.564 80.5843 27.044 80.7709 26.4307V3.23069L70.5709 18.9107L71.4109 20.3907C72.0776 21.484 72.6109 22.4574 73.0109 23.3107C73.4376 24.164 73.6509 24.964 73.6509 25.7107C73.6509 26.6707 73.3176 27.4974 72.6509 28.1907C71.9843 28.884 71.1576 29.2307 70.1709 29.2307ZM69.1309 28.2307C69.6909 28.2307 70.1309 28.0307 70.4509 27.6307C70.7976 27.2307 70.9709 26.764 70.9709 26.2307C70.9709 25.6974 70.7576 25.0307 70.3309 24.2307C69.9309 23.4307 69.4376 22.5374 68.8509 21.5507C68.3176 22.3774 67.8909 23.1374 67.5709 23.8307C67.2509 24.524 67.0909 25.1507 67.0909 25.7107C67.0909 26.4574 67.3043 27.0707 67.7309 27.5507C68.1576 28.004 68.6243 28.2307 69.1309 28.2307ZM116.985 28.8307H108.185C108.692 28.6974 109.119 28.444 109.465 28.0707C109.812 27.6707 109.985 27.2174 109.985 26.7107V26.4307L107.585 20.5507H95.3853L93.0253 26.4307V26.7107C93.0253 27.2174 93.1986 27.6707 93.5453 28.0707C93.892 28.444 94.3186 28.6974 94.8253 28.8307H89.1453C89.8386 28.6707 90.532 28.3374 91.2253 27.8307C91.9186 27.324 92.4653 26.6174 92.8653 25.7107L101.265 4.91069L100.945 4.07069C100.599 3.40402 100.145 2.77735 99.5853 2.19069C99.052 1.57735 98.492 1.19069 97.9053 1.03069H103.305L113.265 25.7107C113.665 26.6174 114.212 27.324 114.905 27.8307C115.599 28.3374 116.292 28.6707 116.985 28.8307ZM107.425 20.1507L101.505 5.47069L95.5453 20.1507H107.425ZM128.66 28.8307H119.94C120.553 28.6707 121.126 28.3907 121.66 27.9907C122.193 27.564 122.54 27.044 122.7 26.4307V3.43069C122.54 2.81735 122.193 2.31069 121.66 1.91069C121.126 1.48402 120.553 1.19069 119.94 1.03069H128.66C128.046 1.19069 127.473 1.48402 126.94 1.91069C126.433 2.31069 126.086 2.81735 125.9 3.43069V26.4307C126.086 27.044 126.433 27.564 126.94 27.9907C127.473 28.3907 128.046 28.6707 128.66 28.8307ZM154.051 28.8307H152.531L134.571 3.71069V25.9907C134.758 26.604 135.104 27.1907 135.611 27.7507C136.144 28.284 136.731 28.644 137.371 28.8307H131.411C132.024 28.644 132.598 28.284 133.131 27.7507C133.664 27.1907 134.011 26.604 134.171 25.9907V3.11069C133.904 2.63069 133.558 2.20402 133.131 1.83069C132.731 1.43069 132.291 1.16402 131.811 1.03069H136.651L153.651 24.8307V3.91069C153.464 3.29735 153.104 2.71069 152.571 2.15069C152.064 1.59069 151.491 1.21735 150.851 1.03069H156.811C156.198 1.21735 155.624 1.59069 155.091 2.15069C154.584 2.71069 154.238 3.29735 154.051 3.91069V25.3907L154.131 25.5107L154.051 26.6707V28.8307ZM185.015 28.8307H184.495L175.055 3.75069C174.655 3.13735 174.095 2.57735 173.375 2.07069C172.655 1.56402 171.948 1.21735 171.255 1.03069H180.175C178.921 1.43069 178.295 2.23069 178.295 3.43069L186.215 24.5107L194.135 3.43069C194.135 2.23069 193.508 1.43069 192.255 1.03069H198.255C197.561 1.21735 196.855 1.56402 196.135 2.07069C195.415 2.57735 194.855 3.13735 194.455 3.75069L185.015 28.8307ZM209.949 28.8307H201.229C201.842 28.6707 202.415 28.3907 202.949 27.9907C203.482 27.564 203.829 27.044 203.989 26.4307V3.43069C203.829 2.81735 203.482 2.31069 202.949 1.91069C202.415 1.48402 201.842 1.19069 201.229 1.03069H209.949C209.335 1.19069 208.762 1.48402 208.229 1.91069C207.722 2.31069 207.375 2.81735 207.189 3.43069V26.4307C207.375 27.044 207.722 27.564 208.229 27.9907C208.762 28.3907 209.335 28.6707 209.949 28.8307ZM226.86 29.7107C222.593 29.7107 219.26 28.484 216.86 26.0307C214.46 23.5507 213.26 20.0174 213.26 15.4307C213.26 11.1374 214.527 7.68402 217.06 5.07069C219.593 2.43069 222.953 1.11069 227.14 1.11069C230.42 1.11069 233.42 1.64402 236.14 2.71069V8.27069C235.393 7.04402 234.527 5.93736 233.54 4.95069C232.58 3.96402 231.5 3.17735 230.3 2.59069C229.1 1.97735 227.78 1.67069 226.34 1.67069C223.513 1.67069 221.18 2.71069 219.34 4.79069C217.5 6.87069 216.58 9.80402 216.58 13.5907C216.58 16.6307 216.967 19.3374 217.74 21.7107C218.513 24.084 219.66 25.9507 221.18 27.3107C222.7 28.644 224.593 29.3107 226.86 29.3107C228.753 29.3107 230.26 28.8974 231.38 28.0707C232.5 27.244 233.3 26.124 233.78 24.7107C234.287 23.2974 234.54 21.724 234.54 19.9907V16.7507C234.353 16.164 233.993 15.6707 233.46 15.2707C232.953 14.844 232.393 14.5507 231.78 14.3907H240.5C239.887 14.5507 239.313 14.844 238.78 15.2707C238.247 15.6707 237.9 16.164 237.74 16.7507V29.3107H237.34L234.54 23.6307C234.14 25.4174 233.327 26.884 232.1 28.0307C230.9 29.1507 229.153 29.7107 226.86 29.7107ZM265.574 28.8307H264.054L246.094 3.71069V25.9907C246.281 26.604 246.628 27.1907 247.134 27.7507C247.668 28.284 248.254 28.644 248.894 28.8307H242.934C243.548 28.644 244.121 28.284 244.654 27.7507C245.188 27.1907 245.534 26.604 245.694 25.9907V3.11069C245.428 2.63069 245.081 2.20402 244.654 1.83069C244.254 1.43069 243.814 1.16402 243.334 1.03069H248.174L265.174 24.8307V3.91069C264.988 3.29735 264.628 2.71069 264.094 2.15069C263.588 1.59069 263.014 1.21735 262.374 1.03069H268.334C267.721 1.21735 267.148 1.59069 266.614 2.15069C266.108 2.71069 265.761 3.29735 265.574 3.91069V25.3907L265.654 25.5107L265.574 26.6707V28.8307ZM290.347 28.8307H270.747C271.36 28.6707 271.934 28.3907 272.467 27.9907C273 27.564 273.347 27.044 273.507 26.4307V3.43069C273.347 2.81735 273 2.31069 272.467 1.91069C271.934 1.48402 271.36 1.19069 270.747 1.03069H290.187L290.987 5.79069C289.814 4.56402 288.4 3.53735 286.747 2.71069C285.12 1.85735 283.44 1.43069 281.707 1.43069H276.707V14.7507H283.107C283.8 14.5907 284.587 14.364 285.467 14.0707C286.347 13.7507 287.134 13.404 287.827 13.0307C288.52 12.6574 288.934 12.2974 289.067 11.9507V17.9107C288.934 17.564 288.52 17.204 287.827 16.8307C287.134 16.4574 286.347 16.124 285.467 15.8307C284.587 15.5374 283.8 15.3107 283.107 15.1507H276.707V28.4307H281.547C283.254 28.4307 284.974 27.964 286.707 27.0307C288.44 26.0707 289.92 24.9774 291.147 23.7507L290.347 28.8307ZM302.719 29.7107C301.199 29.7107 299.639 29.604 298.039 29.3907C296.466 29.1774 295.173 28.9374 294.159 28.6707V22.5507C295.146 24.4174 296.399 26.0174 297.919 27.3507C299.439 28.6574 301.039 29.3107 302.719 29.3107V29.7107ZM302.719 29.7107V29.3107C304.613 29.3107 306.093 28.804 307.159 27.7907C308.226 26.7507 308.759 25.3774 308.759 23.6707C308.759 22.364 308.439 21.2574 307.799 20.3507C307.186 19.444 306.386 18.6574 305.399 17.9907C304.439 17.324 303.413 16.6974 302.319 16.1107C300.186 14.9374 298.546 13.9507 297.399 13.1507C296.439 12.4574 295.693 11.6974 295.159 10.8707C294.653 10.0174 294.399 8.93735 294.399 7.63069C294.399 5.68402 295.119 4.11069 296.559 2.91069C297.999 1.71069 299.866 1.11069 302.159 1.11069C303.706 1.11069 305.266 1.21735 306.839 1.43069C308.413 1.64402 309.706 1.88402 310.719 2.15069V8.27069C309.733 6.40402 308.479 4.81735 306.959 3.51069C305.466 2.17735 303.866 1.51069 302.159 1.51069C300.586 1.51069 299.293 1.91069 298.279 2.71069C297.293 3.51069 296.799 4.57735 296.799 5.91069C296.799 6.89735 297.106 7.77735 297.719 8.55069C298.333 9.32402 299.093 10.0307 299.999 10.6707C300.906 11.3107 301.813 11.8974 302.719 12.4307L304.879 13.7107C306.159 14.4307 307.306 15.164 308.319 15.9107C309.333 16.6307 310.133 17.484 310.719 18.4707C311.306 19.4307 311.599 20.6574 311.599 22.1507C311.599 24.364 310.826 26.1774 309.279 27.5907C307.759 29.004 305.573 29.7107 302.719 29.7107Z" fill="black"/>
</svg>
