<svg width="29" height="14" viewBox="0 0 29 14" fill="none" xmlns="http://www.w3.org/2000/svg">
<path d="M14.5227 0.00473009C15.0059 0.00381753 15.4741 0.166483 15.8461 0.464492L28.253 10.4593C28.6753 10.7986 28.9408 11.2862 28.9913 11.8148C29.0417 12.3434 28.8728 12.8696 28.5218 13.2779C28.1708 13.6861 27.6665 13.9428 27.1197 13.9915C26.5729 14.0403 26.0285 13.877 25.6062 13.5377L14.5227 4.58236L3.43928 13.2179C3.22777 13.3839 2.9844 13.5079 2.72315 13.5828C2.46191 13.6576 2.18794 13.6818 1.917 13.6539C1.64606 13.626 1.38348 13.5467 1.14437 13.4204C0.905254 13.2941 0.694313 13.1234 0.523672 12.9181C0.334302 12.7125 0.190881 12.4714 0.102394 12.2098C0.0139068 11.9482 -0.0177365 11.6717 0.00944084 11.3977C0.0366182 11.1237 0.122031 10.8581 0.260333 10.6175C0.398634 10.377 0.586845 10.1666 0.813168 9.99956L13.22 0.344555C13.6027 0.0936523 14.0614 -0.0259957 14.5227 0.00473009Z" fill="#231F20"/>
</svg>
